<svg width="238" height="35" viewBox="0 0 238 35" fill="none" xmlns="http://www.w3.org/2000/svg">
<g filter="url(#filter0_d)">
<path d="M73.4763 20.505C73.4876 21.0521 73.405 21.5971 73.232 22.1164C73.0846 22.5496 72.8549 22.9504 72.5555 23.2969C72.2601 23.6307 71.9028 23.9043 71.5031 24.1026C71.0724 24.3162 70.6184 24.4796 70.1501 24.5898C69.6312 24.712 69.1034 24.7934 68.5716 24.8333C68.0079 24.8333 67.4316 24.8333 66.8428 24.8333H55.2671V12.1482L52.843 8.90665H66.6549C67.1059 8.90665 67.5631 8.90665 68.0267 8.90665C68.47 8.94014 68.9099 9.00906 69.3421 9.11276C69.7459 9.21101 70.1368 9.35563 70.5072 9.54371C70.8633 9.72676 71.182 9.97461 71.4468 10.2745C71.7215 10.5937 71.932 10.9627 72.0669 11.3612C72.2262 11.8447 72.3025 12.3515 72.2924 12.8602C72.334 13.7434 72.0611 14.6129 71.5219 15.3148C70.8802 16.0321 69.9984 16.4917 69.0414 16.6077C69.7175 16.6449 70.3864 16.7645 71.0334 16.9637C71.5316 17.1172 71.9924 17.3725 72.3863 17.7132C72.7355 18.0235 73.0005 18.4166 73.1568 18.8562C73.3624 19.382 73.4707 19.9407 73.4763 20.505V20.505ZM68.1018 13.6097C68.1321 13.4173 68.1321 13.2213 68.1018 13.0289C68.0365 12.8384 67.9194 12.6697 67.7636 12.5417C67.5689 12.3869 67.3454 12.2723 67.1059 12.2044C66.757 12.1095 66.3963 12.0654 66.0348 12.0733H59.6456V15.09H65.9972C66.3428 15.0645 66.6838 14.9953 67.0119 14.8838C67.25 14.8216 67.4734 14.7134 67.6696 14.5653C67.8256 14.4452 67.9431 14.2825 68.0079 14.0969C68.0621 13.9397 68.0937 13.7757 68.1018 13.6097ZM69.0414 19.9242C69.0515 19.6198 68.987 19.3175 68.8535 19.0435C68.72 18.86 68.5378 18.7172 68.3273 18.6313C68.0047 18.4955 67.6619 18.4132 67.3126 18.3877C66.8992 18.3877 66.3981 18.3877 65.8093 18.3877H59.6456V21.6293H65.8656C66.4419 21.6293 66.943 21.6293 67.369 21.6293C67.7186 21.6062 68.0618 21.5238 68.3837 21.3857C68.629 21.2772 68.8331 21.0934 68.9663 20.861C69.0707 20.5602 69.0966 20.2378 69.0414 19.9242V19.9242Z" fill="white"/>
<path d="M75.2052 24.8146V8.90665H91.3661V12.2981H79.6401V14.8838H90.7647V18.3128H79.6401V21.4232H91.5916V24.8146H75.2052Z" fill="white"/>
<path d="M93.7713 24.8146V8.90665H109.932V12.2981H98.2061V14.8838H109.331V18.3128H98.2061V21.4232H110.101V24.8146H93.7713Z" fill="white"/>
<path d="M116.641 24.8147H112.262V8.90671H123.068C124.088 8.87816 125.107 8.99809 126.093 9.26272C126.816 9.45577 127.488 9.80077 128.066 10.2745C128.57 10.6993 128.952 11.2485 129.175 11.8672C129.41 12.5352 129.524 13.2393 129.513 13.947C129.526 14.5463 129.431 15.1429 129.231 15.7083C129.057 16.1831 128.796 16.6215 128.461 17.0012C128.137 17.3654 127.756 17.6754 127.333 17.9193C126.904 18.1696 126.451 18.3767 125.98 18.5377L133.929 28H128.893L121.376 18.9124H116.678L116.641 24.8147ZM125.154 13.9283C125.163 13.6614 125.125 13.3949 125.041 13.1413C124.957 12.9249 124.805 12.7411 124.609 12.6167C124.362 12.4632 124.087 12.3612 123.801 12.3169C123.382 12.28 122.96 12.28 122.541 12.3169H116.641V15.6334H122.541C122.96 15.6704 123.382 15.6704 123.801 15.6334C124.088 15.5896 124.363 15.4876 124.609 15.3336C124.805 15.2092 124.957 15.0254 125.041 14.809C125.137 14.5258 125.175 14.2264 125.154 13.9283V13.9283Z" fill="white"/>
<path d="M131.317 22.1164V8.90665H146.576V12.2981H135.62V15.0712H146.087V18.4627H135.62V26.9694L131.317 22.1164Z" fill="white"/>
<path d="M169.521 16.87C169.549 18.1228 169.292 19.3657 168.769 20.505C168.273 21.5416 167.532 22.442 166.608 23.1283C165.587 23.8711 164.432 24.4118 163.207 24.7209C161.734 25.0989 160.217 25.2816 158.697 25.2643C157.176 25.28 155.66 25.0974 154.187 24.7209C152.949 24.4136 151.782 23.873 150.748 23.1283C149.819 22.4426 149.071 21.5424 148.568 20.505C148.037 19.3741 147.774 18.137 147.798 16.8887C147.774 15.6404 148.037 14.4033 148.568 13.2724C149.071 12.235 149.819 11.3349 150.748 10.6492C151.781 9.89822 152.948 9.35124 154.187 9.03781C157.15 8.31874 160.243 8.31874 163.207 9.03781C164.432 9.34696 165.587 9.88761 166.608 10.6305C167.532 11.3167 168.273 12.2171 168.769 13.2537C169.289 14.3874 169.546 15.6235 169.521 16.87V16.87ZM165.161 16.87C165.161 16.2656 165.065 15.6651 164.879 15.09C164.678 14.4835 164.33 13.9363 163.864 13.4973C163.297 12.9784 162.624 12.5885 161.891 12.3543C160.858 12.0353 159.778 11.8897 158.697 11.9234C157.928 11.9151 157.159 11.9841 156.404 12.1295C155.812 12.2421 155.237 12.4311 154.694 12.6916C154.251 12.9077 153.845 13.1923 153.491 13.5348C153.183 13.8368 152.923 14.1844 152.721 14.5653C152.529 14.9248 152.39 15.3097 152.308 15.7083C152.23 16.097 152.192 16.4925 152.195 16.8887C152.192 17.2912 152.23 17.693 152.308 18.0879C152.39 18.4866 152.529 18.8715 152.721 19.2309C152.922 19.6126 153.182 19.9604 153.491 20.2615C153.846 20.5978 154.252 20.876 154.694 21.0859C155.238 21.3446 155.813 21.5335 156.404 21.648C157.159 21.7935 157.928 21.8625 158.697 21.8541C159.778 21.8878 160.858 21.7422 161.891 21.4232C162.624 21.189 163.297 20.7991 163.864 20.2802C164.338 19.8254 164.687 19.2579 164.879 18.6313C165.07 18.0632 165.171 17.4691 165.18 16.87H165.161Z" fill="white"/>
<path d="M175.572 24.8147H171.268V8.9067H182.074C183.069 8.88536 184.062 9.00523 185.024 9.26271C185.746 9.45576 186.419 9.80076 186.997 10.2745C187.5 10.6993 187.883 11.2485 188.106 11.8672C188.34 12.5352 188.455 13.2393 188.444 13.947C188.457 14.5463 188.362 15.1429 188.162 15.7083C187.988 16.1831 187.727 16.6215 187.392 17.0012C187.067 17.3654 186.687 17.6754 186.264 17.9193C185.835 18.1696 185.382 18.3767 184.911 18.5377L190.154 24.8147H185.118L180.288 18.9499H175.59L175.572 24.8147ZM184.084 13.9283C184.094 13.6614 184.056 13.3949 183.972 13.1413C183.887 12.9249 183.736 12.7411 183.539 12.6167C183.293 12.4632 183.018 12.3612 182.731 12.3169C182.312 12.28 181.891 12.28 181.472 12.3169H175.572V15.6334H181.472C181.891 15.6704 182.312 15.6704 182.731 15.6334C183.018 15.5896 183.293 15.4876 183.539 15.3336C183.736 15.2092 183.887 15.0254 183.972 14.8089C184.074 14.5271 184.119 14.2277 184.103 13.9283H184.084Z" fill="white"/>
<path d="M201.222 8.49445C202.685 8.48312 204.145 8.61492 205.582 8.88793C206.861 9.12942 208.117 9.47407 209.34 9.91848V13.8158C208.296 13.2405 207.185 12.7938 206.033 12.4855C205.347 12.2998 204.65 12.1559 203.947 12.0545C203.169 11.9419 202.384 11.8855 201.598 11.8859C200.703 11.8769 199.81 11.9522 198.93 12.1107C198.282 12.2389 197.652 12.4401 197.05 12.7103C196.561 12.9231 196.111 13.2142 195.716 13.5723C195.386 13.8758 195.107 14.2301 194.889 14.6215C194.694 14.9795 194.555 15.3649 194.476 15.7645C194.401 16.1345 194.363 16.5112 194.363 16.8888C194.364 17.2343 194.396 17.5792 194.457 17.9193C194.53 18.3035 194.656 18.6757 194.833 19.0248C195.027 19.4172 195.28 19.7775 195.585 20.0928C195.956 20.4634 196.388 20.7676 196.862 20.9922C197.46 21.2824 198.091 21.4964 198.742 21.6293C199.608 21.8023 200.489 21.8839 201.372 21.8729H202.707L203.74 21.7417L204.623 21.5356L205.469 21.292V19.4183H200.583V15.8207H209.716V23.9527C209.099 24.1596 208.472 24.3348 207.837 24.4774C207.123 24.6398 206.39 24.7772 205.638 24.8896C204.887 25.002 204.129 25.0894 203.364 25.1519C202.6 25.1519 201.886 25.1519 201.222 25.1519C200.216 25.1553 199.211 25.0864 198.215 24.9458C197.301 24.8195 196.402 24.6061 195.528 24.3087C194.667 24.0787 193.84 23.7386 193.067 23.2969C192.4 22.8653 191.81 22.3272 191.319 21.7042C190.824 21.0681 190.443 20.3519 190.191 19.5869C189.915 18.7146 189.782 17.8035 189.797 16.8888C189.784 15.9789 189.924 15.0733 190.21 14.2093C190.471 13.4352 190.865 12.7124 191.375 12.0733C191.909 11.4428 192.544 10.9047 193.254 10.4806C193.973 9.98284 194.749 9.57388 195.566 9.26268C196.448 8.99116 197.354 8.80296 198.272 8.70056C199.249 8.56099 200.235 8.49211 201.222 8.49445V8.49445Z" fill="white"/>
<path d="M211.858 24.8146V8.90665H230.65L227.944 12.2981H216.218V14.8838H227.343V18.3128H216.218V21.4232H228.113V24.8146H211.858Z" fill="white"/>
<path d="M45.8659 8.67219L25.1107 7.01044C24.32 6.94713 23.5333 7.17335 22.8984 7.64656C22.2867 8.10257 21.5331 8.32976 20.7698 8.28829L7 7.54019C7.36031 12.4684 15.3046 15.0281 25.8255 18.3969C26.1436 18.4988 26.2515 18.894 26.0271 19.1403L20.5737 25.1262C20.2996 25.4272 20.5261 25.9079 20.934 25.8908L40.3446 25.0761C40.9781 25.0495 41.396 24.4088 41.1628 23.8222C40.7869 22.8765 40.2531 21.5262 39.8011 20.3538C38.5605 17.1364 38.1069 15.5579 46.2163 9.85726C46.7262 9.49882 46.49 8.69037 45.8659 8.67219Z" fill="white"/>
<path d="M21.2168 16.9033C29.2661 13.554 37.7227 10.9804 46.492 9.27637C46.5086 9.4887 46.4249 9.71063 46.2163 9.85725C38.1069 15.5579 38.5605 17.1364 39.8011 20.3538C40.2531 21.5262 40.7869 22.8765 41.1628 23.8222C41.3959 24.4088 40.9781 25.0495 40.3445 25.0761L20.934 25.8908C20.526 25.9079 20.2995 25.4272 20.5737 25.1262L26.0271 19.1403C26.2515 18.894 26.1436 18.4988 25.8255 18.3969C24.2236 17.884 22.6815 17.3899 21.2168 16.9033Z" fill="url(#paint0_linear)"/>
</g>
<defs>
<filter id="filter0_d" x="0" y="0" width="237.65" height="35" filterUnits="userSpaceOnUse" color-interpolation-filters="sRGB">
<feFlood flood-opacity="0" result="BackgroundImageFix"/>
<feColorMatrix in="SourceAlpha" type="matrix" values="0 0 0 0 0 0 0 0 0 0 0 0 0 0 0 0 0 0 127 0"/>
<feOffset/>
<feGaussianBlur stdDeviation="3.5"/>
<feColorMatrix type="matrix" values="0 0 0 0 1 0 0 0 0 0.898039 0 0 0 0 0 0 0 0 1 0"/>
<feBlend mode="normal" in2="BackgroundImageFix" result="effect1_dropShadow"/>
<feBlend mode="normal" in="SourceGraphic" in2="effect1_dropShadow" result="shape"/>
</filter>
<linearGradient id="paint0_linear" x1="32.0641" y1="13.0317" x2="32.0641" y2="23.6487" gradientUnits="userSpaceOnUse">
<stop stop-color="#FDC642"/>
<stop offset="1" stop-color="white"/>
</linearGradient>
</defs>
</svg>
