<svg width="296" height="46" viewBox="0 0 296 46" fill="none" xmlns="http://www.w3.org/2000/svg">
<g filter="url(#filter0_d)">
<path opacity="0.6" fill-rule="evenodd" clip-rule="evenodd" d="M53.0576 13.4341C51.879 13.4341 50.7848 13.5373 49.8531 13.7869C48.9001 14.0331 48.1475 14.3528 47.4968 14.7489C46.8355 15.1514 46.3472 15.6341 46.0055 16.1635L46.0021 16.1686L45.999 16.1739C45.6566 16.7422 45.4989 17.3219 45.4989 17.9066C45.4989 18.4969 45.6096 19.1042 45.9159 19.6804C46.1892 20.2588 46.6472 20.7817 47.2702 21.2197C47.8903 21.6556 48.6434 22.0101 49.5518 22.3233L49.5583 22.3255L49.565 22.3276C50.4825 22.6088 51.5991 22.8162 52.8751 22.9537C53.9618 23.0891 54.867 23.223 55.6324 23.3888C56.4012 23.5553 57.0129 23.7504 57.4483 23.9672C57.8847 24.1846 58.1743 24.4218 58.3688 24.6709L58.3759 24.6799L58.3835 24.6886C58.5478 24.8756 58.6257 25.1169 58.6257 25.3777C58.6257 25.5828 58.5609 25.7727 58.3987 25.9882C58.2407 26.1979 58.0212 26.3691 57.7012 26.5609C57.3546 26.7485 56.9837 26.9011 56.5542 26.9928C56.0995 27.0898 55.6164 27.1538 55.0693 27.1538C53.7883 27.1538 52.5736 26.9249 51.4233 26.4994L51.4199 26.4982C50.2496 26.0772 49.168 25.3943 48.1422 24.4715L48.0284 24.3691H44.9533V29.5445H48.4442V28.0831C48.8023 28.2881 49.1669 28.4798 49.5466 28.6577C50.1363 28.9341 50.7373 29.1815 51.3797 29.3594C51.9791 29.5348 52.6433 29.6737 53.3023 29.7774C53.9782 29.8837 54.6827 29.9181 55.4102 29.9181C56.5673 29.9181 57.5926 29.7784 58.484 29.5298C59.3788 29.2803 60.1064 28.9203 60.6955 28.4803C61.275 28.0473 61.7287 27.564 62.0355 26.9911C62.3326 26.4363 62.4916 25.897 62.4916 25.3098C62.4916 24.6277 62.3843 23.9445 62.0696 23.3568C61.7609 22.7803 61.3024 22.2924 60.6433 21.8548C59.9849 21.4177 59.1588 21.0632 58.1415 20.7837C57.1302 20.5058 55.8831 20.2648 54.4018 20.0931C53.3609 19.9593 52.5246 19.7924 51.8586 19.6266C51.1935 19.461 50.6957 19.2699 50.3734 19.0655C50.0211 18.8423 49.8045 18.6428 49.6792 18.443C49.552 18.2405 49.5011 18.0432 49.5011 17.8047C49.5011 17.682 49.5545 17.5249 49.6996 17.3226C49.8206 17.1539 50.0343 16.9844 50.3645 16.7871C50.6487 16.6172 51.0363 16.4937 51.5432 16.3587C52.064 16.2622 52.6146 16.1984 53.2622 16.1984C53.8487 16.1984 54.4656 16.2636 55.0121 16.3917C55.5597 16.52 56.0791 16.7134 56.5715 16.9423C57.0441 17.162 57.4541 17.4446 57.8016 17.7592C58.1487 18.0735 58.4292 18.4159 58.646 18.7861L58.7614 18.9831H62.0825V13.8756H58.5916V15.1021C58.4109 14.9764 58.2253 14.8572 58.0318 14.7447C57.6194 14.5051 57.1548 14.2546 56.6469 14.0727C56.1372 13.8564 55.5985 13.7149 55.0042 13.6103C54.4358 13.5043 53.7641 13.4341 53.0576 13.4341Z" fill="white"/>
<path opacity="0.6" fill-rule="evenodd" clip-rule="evenodd" d="M83.5287 13.8077H64.8993V16.5041H68.1384V26.7463H65.298H64.8993V27.1436V29.4426H83.5287V23.9955H80.0378V26.7463H71.7657V22.7187H77.7665V20.4298H71.7657V16.5041H80.0378V19.2548H83.5287V13.8077Z" fill="white"/>
<path opacity="0.6" fill-rule="evenodd" clip-rule="evenodd" d="M99.8247 13.8077H96.7826L88.9065 26.7463H86.141V29.4426H95.4622V26.7463H92.9795L94.2411 24.4846H102.128L103.415 26.7463H100.802V29.4426H110.839V26.7463H107.564L99.8247 13.8077ZM95.5359 22.2297L98.1698 17.4968L100.858 22.2297H95.5359Z" fill="white"/>
<path opacity="0.6" fill-rule="evenodd" clip-rule="evenodd" d="M129.524 13.8077H109.224V19.5944H112.715V16.5041H117.645V26.7463H113.554V29.4426H125.194V26.7463H121.102V16.538H126.033V19.6284H129.524V13.8077Z" fill="white"/>
<path opacity="0.6" fill-rule="evenodd" clip-rule="evenodd" d="M152.538 13.8077H132.204V19.5944H135.695V16.5041H140.626V26.7462H136.569V29.4426H148.208V26.7462H144.117V16.538H149.048V19.6283H152.538V13.8077Z" fill="white"/>
<path opacity="0.6" fill-rule="evenodd" clip-rule="evenodd" d="M165.393 13.8077H155.185V16.5041H158.492V26.7463H155.389V29.4426H173.064V23.2824H169.573V26.7463H162.051V16.5041H165.393V13.8077Z" fill="white"/>
<path opacity="0.6" fill-rule="evenodd" clip-rule="evenodd" d="M194.51 13.8077H175.881V16.5041H179.12V26.7463H175.888L175.84 29.4426H194.476V23.9955H190.985V26.7463H182.713V22.7187H188.714V20.4298H182.713V16.5041H191.019V19.2548H194.51V13.8077Z" fill="white"/>
<path fill-rule="evenodd" clip-rule="evenodd" d="M208.78 13.8077H199.782V16.5041H203.089V26.7463H199.946L199.993 29.5445H209.011C210.348 29.5445 211.513 29.5104 212.503 29.4764C213.511 29.4417 214.416 29.3378 215.217 29.1991L215.22 29.1985L215.223 29.1979C215.96 29.0582 216.574 28.8803 217.124 28.6243L217.129 28.6221L217.134 28.6197C217.632 28.3717 218.086 28.0756 218.438 27.689C218.826 27.3004 219.058 26.8728 219.209 26.4203L219.211 26.4159L219.212 26.4115C219.36 25.9325 219.434 25.4516 219.434 24.9362C219.434 24.4858 219.359 24.0196 219.16 23.5831C218.968 23.1639 218.702 22.7853 218.363 22.4478C218.017 22.1033 217.566 21.8066 217.089 21.587L217.084 21.5847L217.079 21.5826C216.961 21.5322 216.841 21.4858 216.719 21.4433C216.829 21.3903 216.937 21.3355 217.042 21.2789L217.048 21.2757L217.054 21.2723C217.482 21.0239 217.896 20.7275 218.208 20.3781C218.503 20.0474 218.737 19.7033 218.894 19.3108C219.047 18.9305 219.127 18.5408 219.127 18.1783C219.127 17.7065 219.056 17.2254 218.906 16.8052C218.78 16.3205 218.532 15.963 218.207 15.6031C217.853 15.2119 217.429 14.9482 216.974 14.7041L216.963 14.6983L216.952 14.6932C216.474 14.4734 215.867 14.297 215.21 14.1586C214.929 14.081 214.553 14.0454 214.196 14.0131C213.817 13.9788 213.37 13.9446 212.857 13.9105C212.345 13.8765 211.758 13.842 211.067 13.8417C210.378 13.8077 209.623 13.8077 208.78 13.8077ZM210.249 20.3619V20.3958H206.648V16.538H210.682C211.051 16.538 211.396 16.5464 211.716 16.5549L211.807 16.5573C212.09 16.5649 212.354 16.572 212.591 16.572C213.069 16.572 213.503 16.6357 213.863 16.7554L213.87 16.7576L213.877 16.7596C214.404 16.914 214.767 17.1499 214.974 17.4078C215.192 17.6788 215.296 17.9653 215.296 18.3141C215.296 18.7192 215.232 19.0174 215.107 19.2417C214.985 19.4615 214.779 19.6524 214.446 19.833C214.132 20.0037 213.675 20.1311 213.041 20.2309C212.425 20.3277 211.632 20.3619 210.648 20.3619H210.249ZM206.58 26.7463V22.6508H210.682C211.333 22.6508 211.934 22.6509 212.464 22.6839C212.995 22.717 213.433 22.7819 213.795 22.9021L213.801 22.904L213.807 22.9057C214.443 23.0958 214.873 23.3682 215.113 23.6598C215.36 23.9604 215.5 24.3463 215.5 24.7664C215.5 24.9317 215.472 25.1027 215.437 25.3123C215.412 25.4611 215.364 25.5842 215.284 25.7165C215.201 25.8547 215.094 25.9856 214.968 26.0861C214.834 26.1927 214.633 26.3089 214.395 26.398L214.392 26.3992C213.994 26.5514 213.525 26.647 212.977 26.679C212.401 26.7128 211.694 26.7463 210.887 26.7463H206.58Z" fill="white"/>
<path fill-rule="evenodd" clip-rule="evenodd" d="M240.676 13.8077H222.046V16.5041H225.286V26.7463H222.054L222.005 29.4426H240.642V23.9955H237.151V26.7463H228.879V22.7187H234.88V20.4298H228.879V16.5041H237.151V19.2548H240.676V13.8077Z" fill="white"/>
<path fill-rule="evenodd" clip-rule="evenodd" d="M262.327 13.8077H243.697V16.5041H246.936V26.7463H243.697V29.4426H262.327V23.9955H258.836V26.7463H250.564V22.7187H256.564V20.4298H250.564V16.5041H258.836V19.2548H262.327V13.8077Z" fill="white"/>
<path fill-rule="evenodd" clip-rule="evenodd" d="M275.505 13.8077H265.28V16.5041H268.587V26.7463H265.443L265.492 29.4426H275.044V26.7463H272.112V23.262H275.531C276.049 23.3572 276.538 23.5417 276.998 23.8167L277.003 23.8196L277.008 23.8223C277.521 24.1101 277.935 24.4277 278.319 24.8098C278.705 25.1942 279.031 25.6147 279.33 26.0454C279.493 26.2796 279.624 26.513 279.73 26.7463H277.043V29.4087H286.296V26.7123H283.76C283.633 26.3645 283.47 25.9892 283.236 25.6108C282.949 25.145 282.592 24.7191 282.257 24.3188L282.248 24.3082C281.885 23.8743 281.456 23.4832 281.038 23.1367C280.868 22.9954 280.693 22.8659 280.518 22.7461L280.539 22.7408L280.552 22.7375L280.565 22.7334C281.768 22.3456 282.694 21.8038 283.337 21.0506C283.982 20.2948 284.284 19.4208 284.284 18.416C284.284 17.8681 284.211 17.3872 284.062 16.9067C283.905 16.3979 283.632 15.9751 283.295 15.6031L283.288 15.5954L283.281 15.588C282.941 15.2491 282.532 14.9555 281.993 14.6694C281.432 14.3712 280.808 14.1919 280.073 14.0524L280.069 14.0516L280.064 14.0508C279.433 13.9461 278.77 13.8767 278.005 13.8421C277.246 13.8077 276.42 13.8077 275.505 13.8077ZM272.146 20.5996V16.5041H276.078C276.626 16.5041 277.089 16.5043 277.55 16.537C278.028 16.5711 278.367 16.6034 278.701 16.6939C279.414 16.8877 279.912 17.1658 280.181 17.4608C280.455 17.7605 280.589 18.1064 280.589 18.5179C280.589 18.849 280.528 19.1496 280.4 19.3776C280.27 19.6117 280.055 19.8318 279.74 20.0028C279.41 20.182 278.977 20.3389 278.368 20.4347C277.743 20.533 276.979 20.5996 276.044 20.5996H272.146Z" fill="white"/>
<path opacity="0.6" fill-rule="evenodd" clip-rule="evenodd" d="M20.4867 12.9152C20.5378 12.4885 20.5822 12.072 20.6208 11.6702C20.1099 11.8802 19.5758 12.1078 19.0303 12.3516C17.4162 13.073 15.7555 13.9125 14.3178 14.8257C12.8404 15.7642 11.7991 16.6558 11.2307 17.418C9.95541 19.128 10.2513 21.5636 11.9264 22.9452C11.8066 24.2229 11.9444 25.5128 12.3271 26.7348C11.5754 26.4951 10.8496 26.1281 10.1811 25.6295C6.96783 23.2332 6.29282 18.7028 8.6734 15.5108C11.083 12.2797 17.094 9.5877 20.8515 8.14645C22.7448 7.42024 24.066 7.0116 24.066 7.0116C24.066 7.0116 24.0683 8.39388 23.9257 10.4198C23.9066 10.6912 23.8849 10.9742 23.8603 11.267C23.8335 11.2789 23.8066 11.2909 23.7797 11.3029C22.7165 11.7781 21.5936 12.3179 20.4867 12.9152Z" fill="white"/>
<path opacity="0.8" fill-rule="evenodd" clip-rule="evenodd" d="M19.415 27.3243C19.3134 27.2613 19.2135 27.1934 19.1157 27.1204C17.2988 25.7655 16.9427 23.23 18.2581 21.4662C18.8265 20.7041 19.8678 19.8124 21.3452 18.8739C22.7829 17.9607 24.4435 17.1213 26.0577 16.3998C26.6032 16.156 27.1373 15.9284 27.6482 15.7185C27.6 16.2202 27.5427 16.7448 27.4747 17.2835C28.6027 16.6527 29.7599 16.0809 30.8651 15.5762C30.8993 15.19 30.9284 14.8193 30.9531 14.468C31.0956 12.4421 31.0933 11.0598 31.0933 11.0598C31.0933 11.0598 29.7722 11.4685 27.8788 12.1947C24.1214 13.6359 18.1104 16.328 15.7008 19.559C13.3202 22.7511 13.9952 27.2814 17.2085 29.6778C18.0302 30.2907 18.9385 30.7046 19.875 30.9279C19.496 29.7675 19.339 28.5431 19.415 27.3243Z" fill="white"/>
<path fill-rule="evenodd" clip-rule="evenodd" d="M26.6276 31.2011C28.4445 32.556 30.9762 32.1742 32.2916 30.4105C32.9062 29.5865 33.4814 28.2978 33.9621 26.6192C34.4321 24.9782 34.7576 23.1601 34.9787 21.4265C35.0502 20.8659 35.1101 20.3201 35.1602 19.7991C34.6493 20.009 34.1152 20.2366 33.5697 20.4805C31.9555 21.2019 30.2949 22.0413 28.8572 22.9546C27.3798 23.8931 26.3385 24.7847 25.7701 25.5469C24.4547 27.3106 24.8108 29.8461 26.6276 31.2011ZM35.3908 16.2753C31.6333 17.7166 25.6224 20.4086 23.2127 23.6396C20.8322 26.8317 21.5072 31.362 24.7204 33.7584C27.9337 36.1548 32.4684 35.5098 34.849 32.3177C37.3497 28.9645 38.1856 22.52 38.4651 18.5486C38.6076 16.5228 38.6053 15.1405 38.6053 15.1405C38.6053 15.1405 37.2841 15.5491 35.3908 16.2753Z" fill="white"/>
</g>
<defs>
<filter id="filter0_d" x="0.250183" y="0.0115967" width="295.75" height="45.0858" filterUnits="userSpaceOnUse" color-interpolation-filters="sRGB">
<feFlood flood-opacity="0" result="BackgroundImageFix"/>
<feColorMatrix in="SourceAlpha" type="matrix" values="0 0 0 0 0 0 0 0 0 0 0 0 0 0 0 0 0 0 127 0"/>
<feOffset/>
<feGaussianBlur stdDeviation="3.5"/>
<feColorMatrix type="matrix" values="0 0 0 0 1 0 0 0 0 0.898039 0 0 0 0 0 0 0 0 1 0"/>
<feBlend mode="normal" in2="BackgroundImageFix" result="effect1_dropShadow"/>
<feBlend mode="normal" in="SourceGraphic" in2="effect1_dropShadow" result="shape"/>
</filter>
</defs>
</svg>
