<svg width="114" height="47" viewBox="0 0 114 47" fill="none" xmlns="http://www.w3.org/2000/svg">
<g filter="url(#filter0_d_79_2)">
<path d="M14.5522 29.8945C13.3544 29.8945 12.3019 29.7456 11.3947 29.4479C10.4875 29.1502 9.75408 28.7036 9.19447 28.1082C8.63486 27.5127 8.26051 26.7591 8.07141 25.8473C7.90132 24.9356 7.94501 23.8656 8.20247 22.6375L10.6834 10.803H16.7578L14.3295 22.3863C14.193 23.0376 14.2208 23.54 14.4128 23.8935C14.6278 24.2285 15.0585 24.3959 15.7049 24.3959C16.3513 24.3959 16.8427 24.2285 17.1791 23.8935C17.5384 23.54 17.7863 23.0376 17.9228 22.3863L20.3512 10.803H26.4541L23.9731 22.6375C23.7156 23.8656 23.3012 24.9356 22.7298 25.8473C22.1774 26.7591 21.4871 27.5127 20.6588 28.1082C19.8496 28.7036 18.9289 29.1502 17.8969 29.4479C16.8648 29.7456 15.7499 29.8945 14.5522 29.8945Z" fill="white"/>
<path d="M41.6849 17.8925C41.4157 19.1765 40.9574 20.2743 40.31 21.1861C39.6665 22.0793 38.8869 22.805 37.9714 23.3632C37.0748 23.9214 36.0669 24.3308 34.9476 24.5913C33.8474 24.8518 32.6888 24.9821 31.472 24.9821L30.5417 29.42H24.4673L28.3701 10.803H34.4445C35.6613 10.803 36.7652 10.9333 37.7563 11.1938C38.7664 11.4543 39.6026 11.8636 40.2651 12.4219C40.9466 12.9801 41.4199 13.7151 41.6851 14.6269C41.9541 15.5201 41.9541 16.6086 41.6849 17.8925ZM32.5253 19.958H32.782C33.5805 19.958 34.1879 19.7812 34.6042 19.4277C35.0435 19.0555 35.3314 18.5438 35.4679 17.8925C35.6044 17.2413 35.5291 16.7389 35.242 16.3853C34.9778 16.0132 34.4465 15.8271 33.648 15.8271H33.3913L32.5253 19.958Z" fill="white"/>
<path d="M56.0251 10.803H62.0995L60.7712 17.1389H64.1649L65.4932 10.803H71.5961L67.6932 29.42H61.5903L63.0356 22.5259H59.6419L58.1966 29.42H52.1222L56.0251 10.803Z" fill="white"/>
<path d="M71.2163 20.1255C71.4971 18.7857 72.019 17.5204 72.782 16.3295C73.564 15.1386 74.4935 14.1059 75.5704 13.2313C76.6702 12.3381 77.8812 11.6403 79.2033 11.1379C80.5293 10.6169 81.8768 10.3564 83.2456 10.3564C84.6145 10.3564 85.8527 10.6169 86.9603 11.1379C88.0717 11.6403 88.9806 12.3381 89.687 13.2313C90.4162 14.1059 90.9127 15.1386 91.1763 16.3295C91.459 17.5204 91.4599 18.7857 91.1791 20.1255C90.8982 21.4652 90.3668 22.7305 89.5848 23.9214C88.8218 25.1123 87.8904 26.1544 86.7905 27.0475C85.7136 27.9221 84.5122 28.6199 83.1862 29.1409C81.8641 29.6433 80.5186 29.8945 79.1497 29.8945C77.7808 29.8945 76.5406 29.6433 75.4292 29.1409C74.3216 28.6199 73.4032 27.9221 72.674 27.0475C71.9677 26.1544 71.4731 25.1123 71.1905 23.9214C70.9268 22.7305 70.9354 21.4652 71.2163 20.1255ZM77.2051 20.1255C77.092 20.6651 77.0893 21.1768 77.197 21.6606C77.3086 22.1258 77.5079 22.5352 77.7951 22.8887C78.0822 23.2422 78.4419 23.5214 78.8743 23.726C79.3257 23.9307 79.8271 24.0331 80.3785 24.0331C80.9298 24.0331 81.4646 23.9307 81.9828 23.726C82.52 23.5214 83.0063 23.2422 83.4417 22.8887C83.877 22.5352 84.248 22.1258 84.5547 21.6606C84.8653 21.1768 85.0771 20.6651 85.1902 20.1255C85.3033 19.5858 85.3041 19.0834 85.1925 18.6182C85.0848 18.1344 84.8874 17.7158 84.6003 17.3622C84.3131 17.0087 83.9439 16.7296 83.4925 16.5249C83.0601 16.3202 82.5682 16.2178 82.0169 16.2178C81.4655 16.2178 80.9212 16.3202 80.384 16.5249C79.8658 16.7296 79.389 17.0087 78.9536 17.3622C78.5183 17.7158 78.1453 18.1344 77.8348 18.6182C77.5281 19.0834 77.3182 19.5858 77.2051 20.1255Z" fill="white"/>
<path d="M96.1942 15.6875H92.6865L93.7105 10.803H107L105.976 15.6875H102.468L99.5894 29.42H93.3154L96.1942 15.6875Z" fill="white"/>
<path d="M32.0684 22.8325L56.5325 7L47.471 17.9779L61.1959 16.8158L28.8432 39.3527L44.7247 21.888L32.0684 22.8325Z" fill="url(#paint0_linear_79_2)"/>
</g>
<defs>
<filter id="filter0_d_79_2" x="0.96991" y="0" width="113.03" height="46.3527" filterUnits="userSpaceOnUse" color-interpolation-filters="sRGB">
<feFlood flood-opacity="0" result="BackgroundImageFix"/>
<feColorMatrix in="SourceAlpha" type="matrix" values="0 0 0 0 0 0 0 0 0 0 0 0 0 0 0 0 0 0 127 0" result="hardAlpha"/>
<feOffset/>
<feGaussianBlur stdDeviation="3.5"/>
<feComposite in2="hardAlpha" operator="out"/>
<feColorMatrix type="matrix" values="0 0 0 0 1 0 0 0 0 0.898039 0 0 0 0 0 0 0 0 1 0"/>
<feBlend mode="normal" in2="BackgroundImageFix" result="effect1_dropShadow_79_2"/>
<feBlend mode="normal" in="SourceGraphic" in2="effect1_dropShadow_79_2" result="shape"/>
</filter>
<linearGradient id="paint0_linear_79_2" x1="45.0196" y1="8.47804" x2="45.0196" y2="39.3527" gradientUnits="userSpaceOnUse">
<stop offset="0.0677083" stop-color="#FDCD59"/>
<stop offset="1" stop-color="white"/>
</linearGradient>
</defs>
</svg>
