<svg width="190" height="63" viewBox="0 0 190 63" fill="none" xmlns="http://www.w3.org/2000/svg">
<path d="M12.8476 44.4178C10.5601 44.4178 8.55016 44.1336 6.81762 43.5652C5.08513 42.9963 3.68449 42.1437 2.61579 41.0064C1.54709 39.8695 0.832174 38.4302 0.471076 36.6889C0.146225 34.9477 0.229656 32.9044 0.721327 30.559L5.45936 7.95833H17.0598L12.4224 30.0793C12.1616 31.323 12.2146 32.2825 12.5814 32.9577C12.9919 33.5973 13.8145 33.9171 15.0489 33.9171C16.2834 33.9171 17.2218 33.5973 17.8643 32.9577C18.5504 32.2825 19.0239 31.323 19.2846 30.0793L23.9221 7.95833H35.577L30.8389 30.559C30.3473 32.9044 29.5558 34.9477 28.4647 36.6889C27.4097 38.4302 26.0914 39.8695 24.5096 41.0064C22.9641 42.1437 21.2059 42.9963 19.235 43.5652C17.2641 44.1336 15.135 44.4178 12.8476 44.4178ZM64.6636 21.4974C64.1497 23.9494 63.2746 26.046 62.038 27.7873C60.8092 29.493 59.3204 30.8788 57.5721 31.9449C55.86 33.011 53.935 33.7928 51.7973 34.2903C49.6961 34.7878 47.4838 35.0365 45.1597 35.0365L43.3831 43.5116H31.7827L39.2362 7.95833H50.8366C53.1602 7.95833 55.2687 8.20707 57.1611 8.7046C59.0902 9.20208 60.687 9.98387 61.9524 11.05C63.254 12.116 64.1579 13.5197 64.6641 15.2609C65.178 16.9666 65.1776 19.0455 64.6636 21.4974ZM47.1712 25.4419H47.6613C49.1863 25.4419 50.3465 25.1043 51.1414 24.4291C51.9803 23.7184 52.5304 22.7412 52.7908 21.4974C53.0517 20.2537 52.908 19.2942 52.3597 18.619C51.8549 17.9083 50.8403 17.553 49.3153 17.553H48.8252L47.1712 25.4419ZM92.0494 7.95833H103.65L101.113 20.0582H107.595L110.131 7.95833H121.786L114.333 43.5116H102.678L105.438 30.3458H98.957L96.1968 43.5116H84.5963L92.0494 7.95833ZM121.06 25.7617C121.597 23.2031 122.594 20.7867 124.051 18.5124C125.544 16.2381 127.319 14.2659 129.376 12.5957C131.476 10.89 133.789 9.55746 136.314 8.59796C138.846 7.603 141.419 7.10547 144.033 7.10547C146.648 7.10547 149.012 7.603 151.128 8.59796C153.25 9.55746 154.986 10.89 156.335 12.5957C157.727 14.2659 158.676 16.2381 159.179 18.5124C159.719 20.7867 159.72 23.2031 159.184 25.7617C158.648 28.3203 157.633 30.7367 156.14 33.011C154.682 35.2853 152.904 37.2753 150.803 38.9808C148.747 40.6512 146.452 41.984 143.92 42.9789C141.395 43.9382 138.826 44.4178 136.211 44.4178C133.597 44.4178 131.229 43.9382 129.106 42.9789C126.991 41.984 125.237 40.6512 123.844 38.9808C122.496 37.2753 121.551 35.2853 121.011 33.011C120.508 30.7367 120.524 28.3203 121.06 25.7617ZM132.497 25.7617C132.281 26.7922 132.276 27.7695 132.482 28.6934C132.695 29.5818 133.076 30.3636 133.624 31.0387C134.173 31.7139 134.859 32.247 135.686 32.6379C136.547 33.0288 137.505 33.2242 138.558 33.2242C139.611 33.2242 140.632 33.0288 141.622 32.6379C142.648 32.247 143.577 31.7139 144.408 31.0387C145.239 30.3636 145.948 29.5818 146.534 28.6934C147.126 27.7695 147.531 26.7922 147.747 25.7617C147.963 24.7312 147.965 23.7717 147.751 22.8833C147.546 21.9594 147.169 21.1598 146.621 20.4846C146.072 19.8095 145.367 19.2765 144.505 18.8856C143.679 18.4947 142.74 18.2992 141.687 18.2992C140.634 18.2992 139.594 18.4947 138.568 18.8856C137.579 19.2765 136.668 19.8095 135.837 20.4846C135.005 21.1598 134.293 21.9594 133.7 22.8833C133.114 23.7717 132.714 24.7312 132.497 25.7617ZM168.762 17.2864H162.063L164.018 7.95833H189.398L187.443 17.2864H180.744L175.246 43.5116H163.264L168.762 17.2864Z" fill="white"/>
<path d="M46.2989 30.9315L93.0188 0.695679L75.7135 21.6606L101.924 19.4413L40.1396 62.4806L70.4691 29.1277L46.2989 30.9315Z" fill="url(#paint0_linear_175_1313)"/>
<defs>
<linearGradient id="paint0_linear_175_1313" x1="71.032" y1="3.51833" x2="71.032" y2="62.4806" gradientUnits="userSpaceOnUse">
<stop offset="0.0677083" stop-color="#006DE7"/>
<stop offset="1" stop-color="#00FFA3"/>
</linearGradient>
</defs>
</svg>
