<svg width="200" height="71" viewBox="0 0 200 71" fill="none" xmlns="http://www.w3.org/2000/svg">
<g clip-path="url(#clip0_23_1089)">
<path d="M19.8476 52.4178C17.5601 52.4178 15.5502 52.1336 13.8176 51.5652C12.0851 50.9963 10.6845 50.1437 9.61579 49.0064C8.54709 47.8695 7.83217 46.4302 7.47108 44.6889C7.14622 42.9477 7.22966 40.9044 7.72133 38.559L12.4594 15.9583H24.0598L19.4224 38.0793C19.1616 39.323 19.2146 40.2825 19.5814 40.9577C19.9919 41.5973 20.8145 41.9171 22.0489 41.9171C23.2834 41.9171 24.2218 41.5973 24.8643 40.9577C25.5504 40.2825 26.0239 39.323 26.2846 38.0793L30.9221 15.9583H42.577L37.8389 38.559C37.3473 40.9044 36.5558 42.9477 35.4647 44.6889C34.4097 46.4302 33.0914 47.8695 31.5096 49.0064C29.9641 50.1437 28.2059 50.9963 26.235 51.5652C24.2641 52.1336 22.135 52.4178 19.8476 52.4178ZM71.6636 29.4974C71.1497 31.9494 70.2746 34.046 69.038 35.7873C67.8092 37.493 66.3204 38.8788 64.5721 39.9449C62.86 41.011 60.935 41.7928 58.7973 42.2903C56.6961 42.7878 54.4838 43.0365 52.1597 43.0365L50.3831 51.5116H38.7827L46.2362 15.9583H57.8366C60.1602 15.9583 62.2687 16.2071 64.1611 16.7046C66.0902 17.2021 67.687 17.9839 68.9524 19.05C70.254 20.116 71.1579 21.5197 71.6641 23.2609C72.178 24.9666 72.1776 27.0455 71.6636 29.4974ZM54.1712 33.4419H54.6613C56.1863 33.4419 57.3465 33.1043 58.1414 32.4291C58.9803 31.7184 59.5304 30.7412 59.7908 29.4974C60.0517 28.2537 59.908 27.2942 59.3597 26.619C58.8549 25.9083 57.8403 25.553 56.3153 25.553H55.8252L54.1712 33.4419ZM99.0494 15.9583H110.65L108.113 28.0582H114.595L117.131 15.9583H128.786L121.333 51.5116H109.678L112.438 38.3458H105.957L103.197 51.5116H91.5963L99.0494 15.9583ZM128.06 33.7617C128.597 31.2031 129.594 28.7867 131.051 26.5124C132.544 24.2381 134.319 22.2659 136.376 20.5957C138.476 18.89 140.789 17.5575 143.314 16.598C145.846 15.603 148.419 15.1055 151.033 15.1055C153.648 15.1055 156.012 15.603 158.128 16.598C160.25 17.5575 161.986 18.89 163.335 20.5957C164.727 22.2659 165.676 24.2381 166.179 26.5124C166.719 28.7867 166.72 31.2031 166.184 33.7617C165.648 36.3203 164.633 38.7367 163.14 41.011C161.682 43.2853 159.904 45.2753 157.803 46.9808C155.747 48.6512 153.452 49.984 150.92 50.9789C148.395 51.9382 145.826 52.4178 143.211 52.4178C140.597 52.4178 138.229 51.9382 136.106 50.9789C133.991 49.984 132.237 48.6512 130.844 46.9808C129.496 45.2753 128.551 43.2853 128.011 41.011C127.508 38.7367 127.524 36.3203 128.06 33.7617ZM139.497 33.7617C139.281 34.7922 139.276 35.7695 139.482 36.6934C139.695 37.5818 140.076 38.3636 140.624 39.0387C141.173 39.7139 141.859 40.247 142.686 40.6379C143.547 41.0288 144.505 41.2242 145.558 41.2242C146.611 41.2242 147.632 41.0288 148.622 40.6379C149.648 40.247 150.577 39.7139 151.408 39.0387C152.239 38.3636 152.948 37.5818 153.534 36.6934C154.126 35.7695 154.531 34.7922 154.747 33.7617C154.963 32.7312 154.965 31.7717 154.751 30.8833C154.546 29.9594 154.169 29.1598 153.621 28.4846C153.072 27.8095 152.367 27.2765 151.505 26.8856C150.679 26.4947 149.74 26.2992 148.687 26.2992C147.634 26.2992 146.594 26.4947 145.568 26.8856C144.579 27.2765 143.668 27.8095 142.837 28.4846C142.005 29.1598 141.293 29.9594 140.7 30.8833C140.114 31.7717 139.714 32.7312 139.497 33.7617ZM175.762 25.2864H169.063L171.018 15.9583H196.398L194.443 25.2864H187.744L182.246 51.5116H170.264L175.762 25.2864Z" fill="white"/>
<path d="M53.2989 38.9315L100.019 8.69568L82.7136 29.6606L108.925 27.4413L47.1396 70.4806L77.4692 37.1277L53.2989 38.9315Z" fill="url(#paint0_linear_23_1089)"/>
</g>
<defs>
<linearGradient id="paint0_linear_23_1089" x1="78.0321" y1="11.5183" x2="78.0321" y2="70.4806" gradientUnits="userSpaceOnUse">
<stop offset="0.0677083" stop-color="#00A907"/>
<stop offset="1" stop-color="#FFF500"/>
</linearGradient>
<clipPath id="clip0_23_1089">
<rect width="200" height="70.4806" fill="white"/>
</clipPath>
</defs>
</svg>
