<svg width="437" height="154" viewBox="0 0 437 154" fill="none" xmlns="http://www.w3.org/2000/svg">
<path d="M43.3669 114.533C38.3689 114.533 33.9771 113.912 30.1915 112.67C26.406 111.427 23.3456 109.564 21.0105 107.079C18.6754 104.595 17.1133 101.45 16.3243 97.6454C15.6145 93.8407 15.7968 89.3761 16.8711 84.2515L27.2237 34.869H52.5707L42.4379 83.2033C41.8682 85.9209 41.984 88.0173 42.7854 89.4926C43.6824 90.8902 45.4796 91.589 48.1769 91.589C50.8742 91.589 52.9247 90.8902 54.3284 89.4926C55.8277 88.0173 56.8622 85.9209 57.4319 83.2033L67.5647 34.869H93.0307L82.6781 84.2515C81.6038 89.3761 79.8745 93.8407 77.4903 97.6454C75.1853 101.45 72.3047 104.595 68.8485 107.079C65.4716 109.564 61.63 111.427 57.3235 112.67C53.0171 113.912 48.3649 114.533 43.3669 114.533ZM156.585 64.4519C155.462 69.8095 153.55 74.3905 150.848 78.1952C148.163 81.9222 144.91 84.9503 141.09 87.2797C137.349 89.6091 133.143 91.3173 128.472 92.4043C123.881 93.4913 119.047 94.0349 113.969 94.0349L110.087 112.553H84.7403L101.026 34.869H126.373C131.45 34.869 136.057 35.4125 140.192 36.4996C144.407 37.5866 147.896 39.2948 150.661 41.6242C153.505 43.9535 155.48 47.0205 156.586 50.8251C157.709 54.5521 157.708 59.0944 156.585 64.4519ZM118.364 73.0706H119.435C122.767 73.0706 125.302 72.3329 127.039 70.8577C128.872 69.3048 130.074 67.1695 130.643 64.4519C131.213 61.7343 130.899 59.6379 129.701 58.1626C128.598 56.6097 126.381 55.8333 123.049 55.8333H121.978L118.364 73.0706ZM216.423 34.869H241.77L236.228 61.3073H250.389L255.931 34.869H281.397L265.112 112.553H239.646L245.677 83.7857H231.516L225.485 112.553H200.138L216.423 34.869ZM279.812 73.7694C280.984 68.1789 283.162 62.899 286.346 57.9297C289.609 52.9604 293.488 48.6511 297.981 45.0017C302.571 41.2748 307.624 38.3631 313.141 36.2666C318.674 34.0926 324.296 33.0055 330.008 33.0055C335.72 33.0055 340.887 34.0926 345.509 36.2666C350.146 38.3631 353.939 41.2748 356.886 45.0017C359.929 48.6511 362.001 52.9604 363.101 57.9297C364.281 62.899 364.284 68.1789 363.112 73.7694C361.94 79.3599 359.723 84.6398 356.46 89.6091C353.276 94.5784 349.39 98.9265 344.8 102.653C340.307 106.303 335.293 109.215 329.76 111.389C324.243 113.485 318.629 114.533 312.917 114.533C307.205 114.533 302.03 113.485 297.392 111.389C292.77 109.215 288.938 106.303 285.895 102.653C282.948 98.9265 280.884 94.5784 279.705 89.6091C278.605 84.6398 278.64 79.3599 279.812 73.7694ZM304.802 73.7694C304.33 76.0211 304.319 78.1564 304.769 80.1751C305.234 82.1163 306.066 83.8245 307.264 85.2997C308.462 86.775 309.963 87.9397 311.768 88.7938C313.651 89.6479 315.744 90.0749 318.044 90.0749C320.345 90.0749 322.576 89.6479 324.739 88.7938C326.98 87.9397 329.01 86.775 330.826 85.2997C332.643 83.8245 334.191 82.1163 335.471 80.1751C336.766 78.1564 337.65 76.0211 338.122 73.7694C338.595 71.5177 338.598 69.4212 338.132 67.4801C337.683 65.4613 336.859 63.7143 335.661 62.239C334.463 60.7638 332.922 59.5991 331.038 58.745C329.234 57.8909 327.181 57.4638 324.881 57.4638C322.58 57.4638 320.309 57.8909 318.067 58.745C315.905 59.5991 313.915 60.7638 312.099 62.239C310.282 63.7143 308.726 65.4613 307.43 67.4801C306.15 69.4212 305.275 71.5177 304.802 73.7694ZM384.04 55.2509H369.403L373.675 34.869H429.129L424.857 55.2509H410.22L398.207 112.553H372.027L384.04 55.2509Z" fill="white"/>
<path d="M116.458 85.0653L218.541 19L180.729 64.8083L238 59.9592L103 154L169.27 81.1239L116.458 85.0653Z" fill="url(#paint0_linear_22_159)"/>
<defs>
<linearGradient id="paint0_linear_22_159" x1="170.5" y1="25.1675" x2="170.5" y2="154" gradientUnits="userSpaceOnUse">
<stop offset="0.0677083" stop-color="#8F00FF"/>
<stop offset="0.489583" stop-color="#C200FA"/>
<stop offset="1" stop-color="#FF00F5"/>
</linearGradient>
</defs>
</svg>
