<svg width="200" height="71" viewBox="0 0 200 71" fill="none" xmlns="http://www.w3.org/2000/svg">
<g clip-path="url(#clip0_23_1092)">
<path d="M19.8477 52.4178C17.5603 52.4178 15.5503 52.1336 13.8177 51.5652C12.0852 50.9963 10.6846 50.1437 9.61591 49.0064C8.54722 47.8695 7.8323 46.4302 7.4712 44.6889C7.14635 42.9477 7.22978 40.9044 7.72145 38.559L12.4595 15.9583H24.0599L19.4225 38.0793C19.1618 39.323 19.2148 40.2825 19.5815 40.9577C19.9921 41.5973 20.8146 41.9171 22.049 41.9171C23.2835 41.9171 24.222 41.5973 24.8644 40.9577C25.5506 40.2825 26.024 39.323 26.2847 38.0793L30.9222 15.9583H42.5771L37.8391 38.559C37.3474 40.9044 36.556 42.9477 35.4648 44.6889C34.4099 46.4302 33.0915 47.8695 31.5097 49.0064C29.9642 50.1437 28.2061 50.9963 26.2351 51.5652C24.2642 52.1336 22.1351 52.4178 19.8477 52.4178ZM71.6637 29.4974C71.1498 31.9494 70.2747 34.046 69.0381 35.7873C67.8093 37.493 66.3205 38.8788 64.5722 39.9449C62.8601 41.011 60.9351 41.7928 58.7974 42.2903C56.6962 42.7878 54.4839 43.0365 52.1598 43.0365L50.3832 51.5116H38.7829L46.2363 15.9583H57.8367C60.1603 15.9583 62.2688 16.2071 64.1612 16.7046C66.0903 17.2021 67.6871 17.9839 68.9525 19.05C70.2541 20.116 71.158 21.5197 71.6642 23.2609C72.1782 24.9666 72.1777 27.0455 71.6637 29.4974ZM54.1713 33.4419H54.6614C56.1864 33.4419 57.3466 33.1043 58.1415 32.4291C58.9804 31.7184 59.5306 30.7412 59.791 29.4974C60.0518 28.2537 59.9081 27.2942 59.3598 26.619C58.855 25.9083 57.8404 25.553 56.3155 25.553H55.8253L54.1713 33.4419ZM99.0496 15.9583H110.65L108.114 28.0582H114.595L117.131 15.9583H128.786L121.333 51.5116H109.678L112.438 38.3458H105.957L103.197 51.5116H91.5965L99.0496 15.9583ZM128.061 33.7617C128.597 31.2031 129.594 28.7867 131.051 26.5124C132.544 24.2381 134.32 22.2659 136.376 20.5957C138.477 18.89 140.789 17.5575 143.314 16.598C145.846 15.603 148.419 15.1055 151.034 15.1055C153.648 15.1055 156.012 15.603 158.128 16.598C160.25 17.5575 161.986 18.89 163.335 20.5957C164.727 22.2659 165.676 24.2381 166.179 26.5124C166.719 28.7867 166.72 31.2031 166.184 33.7617C165.648 36.3203 164.633 38.7367 163.14 41.011C161.682 43.2853 159.904 45.2753 157.803 46.9808C155.747 48.6512 153.452 49.984 150.92 50.9789C148.395 51.9382 145.826 52.4178 143.212 52.4178C140.597 52.4178 138.229 51.9382 136.106 50.9789C133.991 49.984 132.237 48.6512 130.845 46.9808C129.496 45.2753 128.551 43.2853 128.012 41.011C127.508 38.7367 127.524 36.3203 128.061 33.7617ZM139.498 33.7617C139.282 34.7922 139.277 35.7695 139.483 36.6934C139.695 37.5818 140.076 38.3636 140.624 39.0387C141.173 39.7139 141.86 40.247 142.686 40.6379C143.547 41.0288 144.505 41.2242 145.558 41.2242C146.611 41.2242 147.632 41.0288 148.622 40.6379C149.648 40.247 150.577 39.7139 151.408 39.0387C152.239 38.3636 152.948 37.5818 153.534 36.6934C154.126 35.7695 154.531 34.7922 154.747 33.7617C154.964 32.7312 154.965 31.7717 154.752 30.8833C154.546 29.9594 154.169 29.1598 153.621 28.4846C153.072 27.8095 152.367 27.2765 151.505 26.8856C150.679 26.4947 149.74 26.2992 148.687 26.2992C147.634 26.2992 146.595 26.4947 145.569 26.8856C144.579 27.2765 143.668 27.8095 142.837 28.4846C142.006 29.1598 141.293 29.9594 140.7 30.8833C140.115 31.7717 139.714 32.7312 139.498 33.7617ZM175.762 25.2864H169.063L171.018 15.9583H196.398L194.443 25.2864H187.744L182.246 51.5116H170.264L175.762 25.2864Z" fill="white"/>
<path d="M53.2989 38.9315L100.019 8.69568L82.7136 29.6606L108.925 27.4413L47.1396 70.4806L77.4692 37.1277L53.2989 38.9315Z" fill="url(#paint0_linear_23_1092)"/>
</g>
<defs>
<linearGradient id="paint0_linear_23_1092" x1="78.0321" y1="11.5183" x2="78.0321" y2="70.4806" gradientUnits="userSpaceOnUse">
<stop offset="0.0677083" stop-color="#D42A2A"/>
<stop offset="1" stop-color="#F40BCE"/>
</linearGradient>
<clipPath id="clip0_23_1092">
<rect width="200" height="70.4806" fill="white"/>
</clipPath>
</defs>
</svg>
